<svg width="49" height="49" viewBox="0 0 49 49" fill="none" xmlns="http://www.w3.org/2000/svg">
<path fill-rule="evenodd" clip-rule="evenodd" d="M0 24.5C0 10.969 10.969 0 24.5 0C38.031 0 49 10.969 49 24.5C49 38.031 38.031 49 24.5 49C10.969 49 0 38.031 0 24.5ZM24.5 12.25C31.2375 12.25 36.75 17.7625 36.75 24.5C36.75 30.625 32.3094 35.8312 26.1844 36.75V28.0219H29.0938L29.7062 24.5H26.3375V22.2031C26.3375 21.2844 26.7969 20.3656 28.3281 20.3656H29.8594V17.3031C29.8594 17.3031 28.4813 16.9969 27.1031 16.9969C24.3469 16.9969 22.5094 18.6812 22.5094 21.7437V24.5H19.4469V28.0219H22.5094V36.5969C16.6906 35.6781 12.25 30.625 12.25 24.5C12.25 17.7625 17.7625 12.25 24.5 12.25Z" fill="white"/>
</svg>
