<svg width="50" height="50" viewBox="0 0 50 50" fill="none" xmlns="http://www.w3.org/2000/svg">
<path d="M25 29.375C22.6562 29.375 20.625 27.5 20.625 25C20.625 22.6562 22.5 20.625 25 20.625C27.3438 20.625 29.375 22.5 29.375 25C29.375 27.3437 27.3438 29.375 25 29.375Z" fill="white"/>
<path fill-rule="evenodd" clip-rule="evenodd" d="M30.3125 14.375H19.6875C18.4375 14.5312 17.8125 14.6875 17.3438 14.8437C16.7188 15 16.25 15.3125 15.7813 15.7812C15.4103 16.1522 15.2351 16.5231 15.0233 16.9714C14.9674 17.0896 14.9089 17.2134 14.8438 17.3437C14.8196 17.4163 14.7917 17.4925 14.7618 17.5742C14.5983 18.0208 14.375 18.6309 14.375 19.6875V30.3125C14.5312 31.5625 14.6875 32.1875 14.8438 32.6562C15 33.2812 15.3125 33.75 15.7813 34.2187C16.1522 34.5897 16.5231 34.7649 16.9714 34.9767C17.0897 35.0326 17.2133 35.091 17.3438 35.1562C17.4163 35.1804 17.4925 35.2083 17.5742 35.2382C18.0208 35.4017 18.6309 35.625 19.6875 35.625H30.3125C31.5625 35.4687 32.1875 35.3125 32.6562 35.1562C33.2812 35 33.75 34.6875 34.2188 34.2187C34.5897 33.8478 34.7649 33.4769 34.9767 33.0286C35.0326 32.9104 35.091 32.7867 35.1562 32.6562C35.1804 32.5837 35.2083 32.5075 35.2382 32.4257C35.4017 31.9792 35.625 31.3691 35.625 30.3125V19.6875C35.4688 18.4375 35.3125 17.8125 35.1562 17.3437C35 16.7187 34.6875 16.25 34.2188 15.7812C33.8478 15.4103 33.4769 15.2351 33.0286 15.0233C32.9105 14.9675 32.7865 14.9089 32.6562 14.8437C32.5837 14.8196 32.5075 14.7917 32.4258 14.7617C31.9792 14.5983 31.3691 14.375 30.3125 14.375ZM25 18.2812C21.25 18.2812 18.2812 21.25 18.2812 25C18.2812 28.75 21.25 31.7187 25 31.7187C28.75 31.7187 31.7187 28.75 31.7187 25C31.7187 21.25 28.75 18.2812 25 18.2812ZM33.4375 18.125C33.4375 18.9879 32.7379 19.6875 31.875 19.6875C31.0121 19.6875 30.3125 18.9879 30.3125 18.125C30.3125 17.2621 31.0121 16.5625 31.875 16.5625C32.7379 16.5625 33.4375 17.2621 33.4375 18.125Z" fill="white"/>
<path fill-rule="evenodd" clip-rule="evenodd" d="M0 25C0 11.1929 11.1929 0 25 0C38.8071 0 50 11.1929 50 25C50 38.8071 38.8071 50 25 50C11.1929 50 0 38.8071 0 25ZM19.6875 12.0312H30.3125C31.7187 12.1875 32.6562 12.3437 33.4375 12.6562C34.375 13.125 35 13.4375 35.7812 14.2187C36.5625 15 37.0312 15.7812 37.3438 16.5625C37.6562 17.3437 37.9688 18.2812 37.9688 19.6875V30.3125C37.8125 31.7187 37.6562 32.6562 37.3438 33.4375C36.875 34.375 36.5625 35 35.7812 35.7812C35 36.5625 34.2188 37.0312 33.4375 37.3437C32.6562 37.6562 31.7187 37.9687 30.3125 37.9687H19.6875C18.2813 37.8125 17.3438 37.6562 16.5625 37.3437C15.625 36.875 15 36.5625 14.2188 35.7812C13.4375 35 12.9688 34.2187 12.6563 33.4375C12.3438 32.6562 12.0312 31.7187 12.0312 30.3125V19.6875C12.1875 18.2812 12.3438 17.3437 12.6563 16.5625C13.125 15.625 13.4375 15 14.2188 14.2187C15 13.4375 15.7813 12.9687 16.5625 12.6562C17.3438 12.3437 18.2813 12.0312 19.6875 12.0312Z" fill="white"/>
</svg>
