<svg width="50" height="50" viewBox="0 0 50 50" fill="none" xmlns="http://www.w3.org/2000/svg">
<path fill-rule="evenodd" clip-rule="evenodd" d="M25 50C11.1929 50 0 38.8071 0 25C0 11.1929 11.1929 0 25 0C38.8071 0 50 11.1929 50 25C50 38.8071 38.8071 50 25 50ZM26.081 18.7615C23.842 19.6928 19.367 21.6204 12.6561 24.5442C11.5664 24.9776 10.9955 25.4015 10.9436 25.816C10.8557 26.5166 11.733 26.7925 12.9277 27.1681C13.0902 27.2192 13.2586 27.2722 13.4312 27.3283C14.6066 27.7104 16.1877 28.1573 17.0096 28.1751C17.7552 28.1912 18.5874 27.8838 19.5061 27.253C25.7763 23.0204 29.0129 20.8811 29.2162 20.835C29.3595 20.8024 29.5582 20.7615 29.6928 20.8812C29.8274 21.0008 29.8141 21.2274 29.7999 21.2881C29.713 21.6587 26.2692 24.8603 24.4871 26.5171C23.9315 27.0337 23.5374 27.4001 23.4568 27.4837C23.2763 27.6712 23.0924 27.8485 22.9156 28.0189C21.8237 29.0715 21.0048 29.8609 22.961 31.15C23.901 31.7695 24.6533 32.2817 25.4037 32.7928C26.2233 33.3509 27.0407 33.9076 28.0983 34.6009C28.3678 34.7775 28.6251 34.961 28.8758 35.1397C29.8296 35.8196 30.6865 36.4305 31.7451 36.3331C32.3602 36.2765 32.9956 35.6981 33.3183 33.973C34.0809 29.8961 35.5799 21.0626 35.9264 17.4226C35.9567 17.1037 35.9186 16.6955 35.8879 16.5164C35.8572 16.3372 35.7932 16.0819 35.5603 15.893C35.2845 15.6692 34.8587 15.622 34.6682 15.6251C33.8024 15.6406 32.474 16.1025 26.081 18.7615Z" fill="white"/>
</svg>
